# xmcd
#
# Track frame offsets: 
#        150
#        17182
#        41977
#        56660
#        71005
#        92750
#        123260
#        147097
#        163570
#        180520
#        192155
#        209372
#
# Disc length: 3191 seconds
#
# Revision: 0
# Processed by: cddbd v1.5.2PL0 Copyright (c) Steve Scherf et al.
# Submitted via: ExactAudioCopy v0.99pb4
#
DISCID=aa0c750c
DTITLE=Big Pete Pearson - I'm Here Baby
DYEAR=2007
DGENRE=Blues
TTITLE0=Too Many Drivers
TTITLE1=Tin Pan Alley
TTITLE2=The Way I See It
TTITLE3=Worried About My Baby
TTITLE4=I'm Here Baby
TTITLE5=Big Leg Woman
TTITLE6=The Highway Is Like A Woman
TTITLE7=Pete and W.C.'s Blues Medley
TTITLE8=Possum Up A Tree
TTITLE9=Natural Ball
TTITLE10=My Baby Is A Jockey
TTITLE11=Texas Blues Memories
EXTD=
EXTT0=
EXTT1=
EXTT2=
EXTT3=
EXTT4=
EXTT5=
EXTT6=
EXTT7=
EXTT8=
EXTT9=
EXTT10=
EXTT11=
PLAYORDER=
